<?xml version="1.0" encoding="utf-8"?>
<!-- Generator: Adobe Illustrator 26.1.0, SVG Export Plug-In . SVG Version: 6.00 Build 0)  -->
<svg version="1.1" id="Layer_1" xmlns="http://www.w3.org/2000/svg" xmlns:xlink="http://www.w3.org/1999/xlink" x="0px" y="0px"
	 viewBox="0 0 1068 305" style="enable-background:new 0 0 1068 305;" xml:space="preserve">
<style type="text/css">
	.st0{fill:#008CFF;}
	.st1{fill:#FFFFFF;}
</style>
<path class="st0" d="M262.91,131.41l-14.59,44.86L204.15,41.82l-48.37,0.12l-43.46,134.68L67.8,42.17L3.65,42.34l0.01,3.46
	l85.11,239.09l41.71-0.11l49.74-145.45l50.51,145.2l41.71-0.11l9.17-26.2L262.91,131.41z M356.27,41.42l-18.99,0.05l5.52,37.43
	c0.69-0.52,1.4-1.03,2.11-1.52l11.37-32.49L356.27,41.42z"/>
<path d="M473.24,145.88c-0.44,0.29-0.88,0.58-1.31,0.87c-0.9,0.61-1.78,1.23-2.64,1.87c-1.04,0.76-2.06,1.55-3.06,2.36
	c-0.42,0.33-0.83,0.67-1.24,1.03c-0.34,0.27-0.68,0.56-1.01,0.86c-0.47,0.4-0.94,0.81-1.39,1.23c-0.65,0.59-1.28,1.18-1.9,1.79
	c-0.43,0.4-0.85,0.83-1.27,1.25c-3.01,3.06-5.74,6.32-8.17,9.76c-0.41,0.57-0.81,1.15-1.19,1.73c-0.25,0.37-0.49,0.74-0.72,1.11
	c-0.22,0.33-0.43,0.67-0.64,1.01c-0.33,0.53-0.65,1.06-0.97,1.6c-0.2,0.35-0.41,0.7-0.59,1.05c-0.21,0.34-0.4,0.68-0.57,1.02
	c-0.32,0.57-0.63,1.16-0.93,1.74c-0.18,0.35-0.35,0.7-0.52,1.05c-0.17,0.32-0.32,0.64-0.47,0.97c-0.14,0.28-0.27,0.56-0.39,0.84
	c-0.18,0.37-0.35,0.74-0.51,1.12c-0.12,0.27-0.24,0.54-0.36,0.82c-0.16,0.37-0.32,0.75-0.47,1.13c-0.16,0.39-0.32,0.78-0.47,1.17
	c-0.07,0.18-0.14,0.36-0.2,0.54c-0.21,0.54-0.41,1.07-0.59,1.62c-0.05,0.11-0.09,0.23-0.13,0.35c-0.17,0.47-0.33,0.94-0.48,1.41
	c-0.11,0.31-0.21,0.63-0.3,0.95c-0.12,0.36-0.23,0.73-0.34,1.09c-0.13,0.44-0.26,0.89-0.38,1.33c-0.06,0.2-0.12,0.4-0.17,0.6
	c-0.15,0.56-0.3,1.12-0.43,1.68c-0.04,0.14-0.08,0.28-0.11,0.43c-0.13,0.55-0.26,1.09-0.37,1.65c-0.05,0.19-0.09,0.38-0.13,0.58
	c-0.11,0.47-0.2,0.95-0.29,1.44c-0.12,0.58-0.22,1.17-0.32,1.76c-0.08,0.46-0.15,0.91-0.22,1.37c-0.11,0.72-0.21,1.43-0.3,2.16
	c-0.18,1.44-0.32,2.91-0.43,4.38c-0.14,2.02-0.22,4.02-0.22,6.01c0,0.71,0.01,1.41,0.03,2.12c0,0.07,0,0.14,0.01,0.22
	c0.01,0.56,0.03,1.11,0.06,1.67c0.01,0.25,0.03,0.51,0.04,0.77c0.02,0.38,0.05,0.75,0.08,1.13c0.03,0.44,0.06,0.88,0.11,1.32
	c0,0.05,0.01,0.11,0.01,0.16c0.04,0.49,0.09,0.98,0.15,1.47c0.21,1.87,0.48,3.72,0.81,5.56c0.07,0.37,0.14,0.74,0.22,1.11
	c0.07,0.36,0.14,0.71,0.22,1.07c0.04,0.19,0.08,0.38,0.12,0.57c0.09,0.4,0.18,0.81,0.28,1.21c0.09,0.38,0.18,0.75,0.28,1.12
	c0.03,0.12,0.06,0.23,0.09,0.34c0.12,0.47,0.24,0.93,0.38,1.39c0.16,0.6,0.34,1.2,0.52,1.79c0.3,0.98,0.62,1.96,0.97,2.93
	c0.36,1.02,0.74,2.04,1.14,3.04c0.17,0.42,0.34,0.84,0.52,1.25c0.12,0.3,0.25,0.6,0.38,0.9c0.81,1.86,1.7,3.68,2.66,5.46
	c0.27,0.51,0.55,1.03,0.85,1.54c0.29,0.53,0.6,1.05,0.91,1.57c0.76,1.28,1.57,2.54,2.41,3.77c0.38,0.57,0.77,1.13,1.17,1.69
	c0.48,0.65,0.95,1.3,1.44,1.93c0.38,0.5,0.77,0.99,1.17,1.49c0.44,0.55,0.89,1.1,1.36,1.64c0.45,0.55,0.92,1.09,1.41,1.62
	c1.47,1.65,3.02,3.25,4.65,4.79l-28.47,4.11L416.53,161.5c-3.63-24.61-20.98-38.37-42.93-35.2c-21.95,3.17-34.6,21.26-30.97,45.87
	l16.49,111.86l-58.53,8.45l-9.18-62.25l-18.92-128.27l-11.94-80.99l58.54-8.45l4.27,28.99l9.98,67.67c0.32-0.51,0.64-1.02,0.97-1.52
	c11.86-18.19,31.34-29.77,55.55-33.26c27.83-4.01,49.7,4.32,64.63,23.75L473.24,145.88z"/>
<path d="M637.7,153.57l-19.95,5.5l-19.83-70.41l6.24-1.72c-13.48-6.73-29.96-10.48-48.79-11.8c-35.7-2.49-70.1,7.88-88.22,17.23
	c-0.04,0.02-0.08,0.04-0.12,0.06l16.31,41.49c0.59-0.28,1.19-0.56,1.8-0.84c15.26-6.99,36.65-12.6,56.51-11.22
	c25.45,1.79,41.73,12.46,42.12,38.16c-11.97-8.9-27.49-14.76-45.56-16.03c-18.59-1.3-35.44,1.93-49.27,8.72
	c-1.61,0.79-3.17,1.62-4.69,2.51c-2.84,1.64-5.53,3.44-8.06,5.4c-14.57,11.27-23.79,27.55-25.18,46.95
	c-1.73,24.23,9.32,45.35,28.9,59.02c3.76,2.63,7.83,4.98,12.19,7.02c2.94,1.39,6.01,2.63,9.21,3.72c8.24,2.83,17.29,4.66,26.98,5.34
	c18.07,1.27,34.64-2.35,47.75-9.49l-0.65,9.11l60.12,4.21l8.02-112.22L637.7,153.57z M582.35,216.04
	c-1.17,16.42-16.39,27.09-38.15,25.56c-21.02-1.47-35.31-14.21-34.13-30.62c1.17-16.43,17.13-27.05,38.15-25.58
	C569.98,186.93,583.53,199.61,582.35,216.04z"/>
<path d="M789.17,259.01l-38.82,10.7c-42.74,11.79-67.16-5.4-77.68-42.76l-15.22-54.04l-4.52-16.05v-0.01l-5.67-20.12l-5,1.38
	l-14.94,4.12l-12.41-44.05l4.5-1.24l9.9-2.73l5.49-1.51l0.06-0.02l-10.82-38.41l54.01-26.29l13.79,48.99l37.4-10.31l12.41,44.05
	l-37.4,10.31l19.95,70.83c6.45,22.92,14.03,28.03,33.26,22.73l17.81-4.91L789.17,259.01z"/>
<path d="M905.78,216.15c-5.01,0-8.77-0.16-11.51-1.53c0.44,2.75,1,5.44,1.68,8.06c4.59,18.06,14.34,33.15,27.83,43.93
	c2.37,1.91,4.85,3.67,7.44,5.29v-55.75H905.78z M925.82,128.41c-0.43,0.31-0.85,0.63-1.27,0.96h1.27V128.41z"/>
<path d="M978.66,111.71c-20.48,0-38.6,6.05-52.84,16.7v0.96h-1.27c-19.66,15.32-31.58,39.63-31.58,68.93
	c0,5.64,0.44,11.09,1.3,16.32c2.74,1.37,6.5,1.53,11.51,1.53h25.44v55.75c13.31,8.33,29.47,12.99,47.44,12.99
	c49.83,0,85.69-35.78,85.69-86.59S1028.49,111.71,978.66,111.71z M978.66,241.59c-21.88,0-38.6-18.34-38.6-43.29
	c0-24.96,16.72-43.3,38.6-43.3c21.87,0,38.59,18.34,38.59,43.3C1017.25,223.25,1000.53,241.59,978.66,241.59z"/>
<path class="st1" d="M905.78,216.15c-5.01,0-8.77-0.16-11.51-1.53c-4.49-2.24-6.24-7.71-6.24-21.02v-64.23h37.79V70.12h-37.79V19.11
	l-72.48,13.44v37.57h-20.16v59.25h20.16v83.82c0,44.19,23.86,67.55,69,67.55h46.67v-64.59H905.78z M923.78,273.38h-39.23
	c-43.2,0-61.56-22.43-61.56-60.19v-91.18h-20.15V77.49h20.15V38.66l57.6-10.68v49.51h37.79v44.52h-37.79v71.59
	c0,18.66,3.74,26.67,15.36,29.08c2.8,0.59,6.06,0.84,9.83,0.84h18V273.38z"/>
<path class="st0" d="M923.78,223.52v49.86h-39.23c-43.2,0-61.56-22.43-61.56-60.19v-91.18h-20.15V77.49h20.15V38.66l57.6-10.68
	v49.51h37.79v44.52h-37.79v71.59c0,23.15,5.76,29.92,25.19,29.92H923.78z"/>
</svg>
