<?xml version="1.0" encoding="utf-8"?>
<!-- Generator: Adobe Illustrator 26.1.0, SVG Export Plug-In . SVG Version: 6.00 Build 0)  -->
<svg version="1.1" id="Layer_1" xmlns="http://www.w3.org/2000/svg" xmlns:xlink="http://www.w3.org/1999/xlink" x="0px" y="0px"
	 viewBox="0 0 1068 305" style="enable-background:new 0 0 1068 305;" xml:space="preserve">
<style type="text/css">
	.st0{fill:#FFFFFF;}
</style>
<path class="st0" d="M262.9,131.4l-14.6,44.9L204.1,41.8l-48.4,0.1l-43.5,134.7L67.8,42.2L3.7,42.3l0,3.5l85.1,239.1l41.7-0.1
	l49.7-145.4l50.5,145.2l41.7-0.1l9.2-26.2L262.9,131.4z M356.3,41.4l-19,0l5.5,37.4c0.7-0.5,1.4-1,2.1-1.5l11.4-32.5L356.3,41.4z"/>
<path class="st0" d="M473.2,145.9c-0.4,0.3-0.9,0.6-1.3,0.9c-0.9,0.6-1.8,1.2-2.6,1.9c-1,0.8-2.1,1.6-3.1,2.4
	c-0.4,0.3-0.8,0.7-1.2,1c-0.3,0.3-0.7,0.6-1,0.9c-0.5,0.4-0.9,0.8-1.4,1.2c-0.6,0.6-1.3,1.2-1.9,1.8c-0.4,0.4-0.9,0.8-1.3,1.2
	c-3,3.1-5.7,6.3-8.2,9.8c-0.4,0.6-0.8,1.1-1.2,1.7c-0.2,0.4-0.5,0.7-0.7,1.1c-0.2,0.3-0.4,0.7-0.6,1c-0.3,0.5-0.6,1.1-1,1.6
	c-0.2,0.4-0.4,0.7-0.6,1.1c-0.2,0.3-0.4,0.7-0.6,1c-0.3,0.6-0.6,1.2-0.9,1.7c-0.2,0.4-0.4,0.7-0.5,1.1c-0.2,0.3-0.3,0.6-0.5,1
	c-0.1,0.3-0.3,0.6-0.4,0.8c-0.2,0.4-0.4,0.7-0.5,1.1c-0.1,0.3-0.2,0.5-0.4,0.8c-0.2,0.4-0.3,0.8-0.5,1.1c-0.2,0.4-0.3,0.8-0.5,1.2
	c-0.1,0.2-0.1,0.4-0.2,0.5c-0.2,0.5-0.4,1.1-0.6,1.6c0,0.1-0.1,0.2-0.1,0.4c-0.2,0.5-0.3,0.9-0.5,1.4c-0.1,0.3-0.2,0.6-0.3,0.9
	c-0.1,0.4-0.2,0.7-0.3,1.1c-0.1,0.4-0.3,0.9-0.4,1.3c-0.1,0.2-0.1,0.4-0.2,0.6c-0.1,0.6-0.3,1.1-0.4,1.7c0,0.1-0.1,0.3-0.1,0.4
	c-0.1,0.6-0.3,1.1-0.4,1.6c0,0.2-0.1,0.4-0.1,0.6c-0.1,0.5-0.2,0.9-0.3,1.4c-0.1,0.6-0.2,1.2-0.3,1.8c-0.1,0.5-0.1,0.9-0.2,1.4
	c-0.1,0.7-0.2,1.4-0.3,2.2c-0.2,1.4-0.3,2.9-0.4,4.4c-0.1,2-0.2,4-0.2,6c0,0.7,0,1.4,0,2.1c0,0.1,0,0.1,0,0.2c0,0.6,0,1.1,0.1,1.7
	c0,0.2,0,0.5,0,0.8c0,0.4,0,0.8,0.1,1.1c0,0.4,0.1,0.9,0.1,1.3c0,0.1,0,0.1,0,0.2c0,0.5,0.1,1,0.1,1.5c0.2,1.9,0.5,3.7,0.8,5.6
	c0.1,0.4,0.1,0.7,0.2,1.1c0.1,0.4,0.1,0.7,0.2,1.1c0,0.2,0.1,0.4,0.1,0.6c0.1,0.4,0.2,0.8,0.3,1.2c0.1,0.4,0.2,0.8,0.3,1.1
	c0,0.1,0.1,0.2,0.1,0.3c0.1,0.5,0.2,0.9,0.4,1.4c0.2,0.6,0.3,1.2,0.5,1.8c0.3,1,0.6,2,1,2.9c0.4,1,0.7,2,1.1,3
	c0.2,0.4,0.3,0.8,0.5,1.2c0.1,0.3,0.2,0.6,0.4,0.9c0.8,1.9,1.7,3.7,2.7,5.5c0.3,0.5,0.5,1,0.9,1.5c0.3,0.5,0.6,1.1,0.9,1.6
	c0.8,1.3,1.6,2.5,2.4,3.8c0.4,0.6,0.8,1.1,1.2,1.7c0.5,0.6,1,1.3,1.4,1.9c0.4,0.5,0.8,1,1.2,1.5c0.4,0.5,0.9,1.1,1.4,1.6
	c0.5,0.5,0.9,1.1,1.4,1.6c1.5,1.6,3,3.2,4.6,4.8l-28.5,4.1l-16.5-111.9c-3.6-24.6-21-38.4-42.9-35.2c-22,3.2-34.6,21.3-31,45.9
	L359.1,284l-58.5,8.5l-9.2-62.2L272.5,102l-11.9-81l58.5-8.4l4.3,29l10,67.7c0.3-0.5,0.6-1,1-1.5c11.9-18.2,31.3-29.8,55.5-33.3
	c27.8-4,49.7,4.3,64.6,23.8L473.2,145.9z"/>
<path class="st0" d="M637.7,153.6l-20,5.5l-19.8-70.4l6.2-1.7c-13.5-6.7-30-10.5-48.8-11.8c-35.7-2.5-70.1,7.9-88.2,17.2
	c0,0-0.1,0-0.1,0.1l16.3,41.5c0.6-0.3,1.2-0.6,1.8-0.8c15.3-7,36.6-12.6,56.5-11.2c25.5,1.8,41.7,12.5,42.1,38.2
	c-12-8.9-27.5-14.8-45.6-16c-18.6-1.3-35.4,1.9-49.3,8.7c-1.6,0.8-3.2,1.6-4.7,2.5c-2.8,1.6-5.5,3.4-8.1,5.4
	c-14.6,11.3-23.8,27.6-25.2,46.9c-1.7,24.2,9.3,45.3,28.9,59c3.8,2.6,7.8,5,12.2,7c2.9,1.4,6,2.6,9.2,3.7c8.2,2.8,17.3,4.7,27,5.3
	c18.1,1.3,34.6-2.4,47.8-9.5l-0.7,9.1l60.1,4.2l8-112.2L637.7,153.6z M582.3,216c-1.2,16.4-16.4,27.1-38.2,25.6
	c-21-1.5-35.3-14.2-34.1-30.6c1.2-16.4,17.1-27.1,38.2-25.6C570,186.9,583.5,199.6,582.3,216z"/>
<path class="st0" d="M789.2,259l-38.8,10.7c-42.7,11.8-67.2-5.4-77.7-42.8l-15.2-54l-4.5-16.1v0l-5.7-20.1l-5,1.4l-14.9,4.1
	l-12.4-44.1l4.5-1.2l9.9-2.7l5.5-1.5l0.1,0L624,54.3l54-26.3l13.8,49l37.4-10.3l12.4,44L704.2,121l20,70.8c6.5,22.9,14,28,33.3,22.7
	l17.8-4.9L789.2,259z"/>
<path class="st0" d="M924.5,129.4h1.3v-1C925.4,128.7,925,129,924.5,129.4z"/>
<path class="st0" d="M978.7,111.7c-20.5,0-38.6,6-52.8,16.7v1h-1.3C904.9,144.7,893,169,893,198.3c0,5.6,0.4,11.1,1.3,16.3
	c2.7,1.4,6.5,1.5,11.5,1.5h25.4v55.8c13.3,8.3,29.5,13,47.4,13c49.8,0,85.7-35.8,85.7-86.6S1028.5,111.7,978.7,111.7z M978.7,241.6
	c-21.9,0-38.6-18.3-38.6-43.3c0-25,16.7-43.3,38.6-43.3c21.9,0,38.6,18.3,38.6,43.3C1017.2,223.2,1000.5,241.6,978.7,241.6z"/>
<path class="st0" d="M923.8,273.4h-39.2c-43.2,0-61.6-22.4-61.6-60.2V122h-20.1V77.5H823V38.7L880.6,28v49.5h37.8V122h-37.8v71.6
	c0,0.4,0,0.7,0,1.1c0,0.4,0,0.7,0,1c0,0.4,0,0.7,0,1s0,0.7,0,1c0,0.7,0.1,1.3,0.1,1.9c0,0.3,0,0.6,0.1,0.9c0,0.4,0.1,0.9,0.1,1.3
	c0,0.3,0.1,0.7,0.1,1c0.1,0.7,0.2,1.4,0.3,2.1c0.1,0.5,0.1,0.9,0.2,1.4c0.2,1.3,0.5,2.6,0.8,3.8c0.1,0.2,0.1,0.4,0.2,0.6
	c0.4,1.3,0.9,2.5,1.5,3.6c0.1,0.2,0.3,0.5,0.4,0.7c0.2,0.3,0.3,0.5,0.5,0.8c0.2,0.2,0.3,0.5,0.5,0.7c0.4,0.5,0.8,1,1.2,1.4
	c0.2,0.2,0.4,0.4,0.6,0.6c0.1,0.1,0.2,0.2,0.4,0.3c0.2,0.2,0.4,0.4,0.7,0.5c0.1,0.1,0.3,0.2,0.4,0.3c0.2,0.2,0.5,0.3,0.8,0.5
	c0.3,0.2,0.5,0.3,0.8,0.5c0.6,0.3,1.2,0.6,1.9,0.8c0.3,0.1,0.5,0.2,0.8,0.3c0.3,0.1,0.6,0.2,1,0.3c0.3,0.1,0.7,0.2,1,0.3
	c0,0,0,0,0,0c0.3,0.1,0.7,0.2,1,0.2c0.4,0.1,0.9,0.2,1.3,0.2c0.2,0,0.5,0.1,0.7,0.1c0.1,0,0.2,0,0.4,0.1c0.5,0.1,1,0.1,1.5,0.2
	c1.3,0.1,2.7,0.2,4.2,0.2c0.3,0,0.5,0,0.8,0c0.3,0,0.6,0,0.9,0h18V273.4z"/>
<path class="st0" d="M923.8,223.5v49.9h-39.2c-43.2,0-61.6-22.4-61.6-60.2V122h-20.2V77.5H823V38.7L880.6,28v49.5h37.8V122h-37.8
	v71.6c0,23.1,5.8,29.9,25.2,29.9L923.8,223.5L923.8,223.5z"/>
</svg>
