<?xml version="1.0" encoding="utf-8"?>
<!-- Generator: Adobe Illustrator 26.1.0, SVG Export Plug-In . SVG Version: 6.00 Build 0)  -->
<svg version="1.1" id="Layer_1" xmlns="http://www.w3.org/2000/svg" xmlns:xlink="http://www.w3.org/1999/xlink" x="0px" y="0px"
	 viewBox="0 0 1429 1248" style="enable-background:new 0 0 1429 1248;" xml:space="preserve">
<style type="text/css">
	.st0{fill:#008CFF;}
	.st1{fill:#FFFFFF;}
</style>
<g>
	<path class="st0" d="M818.48,35.12c11.9,2.56,24.14,4.09,35.65,7.83c137.36,44.68,274.61,89.68,411.88,134.61
		c26.53,8.68,53.14,17.14,79.55,26.19c58.6,20.07,88.03,78.91,68.94,137.86c-19.39,59.9-39.08,119.7-58.65,179.54
		c-69.88,213.63-139.74,427.27-209.65,640.89c-14.74,45.05-45.91,70.77-92.58,77.77c-17.3,2.6-34.01-0.91-50.41-6.29
		c-74.44-24.42-148.89-48.84-223.34-73.21c-86.91-28.45-173.84-56.85-260.77-85.25c-46.32-15.13-73.78-46.64-78.76-95.15
		c-1.55-15.05,1.1-31.49,5.75-46.05c31.19-97.7,63.46-195.05,95.34-292.52c57.48-175.72,114.84-351.48,172.45-527.17
		c14.04-42.82,43.71-68.28,88.08-76.37c5.29-0.96,10.75-0.97,16.14-1.41C818.23,35.96,818.35,35.54,818.48,35.12z M836.53,790.97
		c0.25,0.72,0.5,1.44,0.75,2.15c11.11-4.03,22.63-7.19,33.24-12.26c23.12-11.05,45.73-23.17,68.64-34.66
		c87.32-43.8,174.7-87.48,262-131.34c11.69-5.87,23.52-11.73,34.36-18.97c16.83-11.23,23.02-31.63,16.77-50.56
		c-6.77-20.47-22.58-32.84-43.53-31.27c-10.72,0.81-21.93,4.1-31.56,8.96c-104.27,52.57-208.3,105.6-312.25,158.78
		c-7.09,3.63-10.46,2.32-14.03-4.25c-11.01-20.26-22.32-40.37-33.76-60.39c-15.11-26.46-30.29-52.88-45.74-79.13
		c-8.67-14.72-21.99-22.47-39.07-21.43c-18.67,1.14-31.85,11.09-39.41,28.31c-7.73,17.62-1.99,33.37,6.72,48.7
		c23.47,41.36,46.85,82.77,70.49,124.03c10.89,19,21.77,38.06,33.73,56.39C811.2,785.28,822.36,791.66,836.53,790.97z"/>
	<path class="st0" d="M533.24,1142.31c-3.26,1.65-4.17,2.34-5.19,2.59c-60.28,14.89-120.32,30.89-180.93,44.27
		c-57.59,12.72-112.02-22.01-126.9-79.58c-16.39-63.42-31.56-127.15-47.3-190.74C137.08,773.98,101.2,629.12,65.37,484.25
		c-17.64-71.33-35.19-142.69-52.83-214.02c-15.79-63.8,18.32-120.45,82.22-136.26C257.6,93.65,420.49,53.51,583.27,12.94
		c28.15-7.02,55.65-9.14,82.61,3.57c7.42,3.5,14.25,8.28,21.33,12.5c3.86,2.31,5.05,4.79,1.6,8.82
		c-16.59,19.4-26.45,42.22-34.31,66.3c-55.28,169.48-110.89,338.85-166.32,508.28c-33.12,101.23-66.05,202.51-99.14,303.75
		c-29.6,90.55,17.08,183.65,107.33,213.89C507.92,1133.92,519.49,1137.74,533.24,1142.31z"/>
	<path class="st1" d="M836.53,790.97c-14.17,0.69-25.33-5.7-32.66-16.93c-11.96-18.33-22.84-37.39-33.73-56.39
		c-23.65-41.26-47.02-82.67-70.49-124.03c-8.7-15.34-14.45-31.08-6.72-48.7c7.56-17.23,20.74-27.17,39.41-28.31
		c17.09-1.04,30.41,6.71,39.07,21.43c15.46,26.25,30.64,52.67,45.74,79.13c11.44,20.03,22.74,40.13,33.76,60.39
		c3.57,6.57,6.95,7.88,14.03,4.25c103.95-53.18,207.99-106.22,312.25-158.78c9.63-4.86,20.84-8.15,31.56-8.96
		c20.95-1.58,36.76,10.8,43.53,31.27c6.26,18.93,0.06,39.33-16.77,50.56c-10.85,7.24-22.67,13.09-34.36,18.97
		c-87.29,43.86-174.68,87.54-262,131.34c-22.91,11.49-45.52,23.62-68.64,34.66c-10.61,5.07-22.14,8.23-33.24,12.26
		C837.03,792.41,836.78,791.69,836.53,790.97z"/>
</g>
</svg>
