<?xml version="1.0" encoding="utf-8"?>
<!-- Generator: Adobe Illustrator 26.1.0, SVG Export Plug-In . SVG Version: 6.00 Build 0)  -->
<svg version="1.1" id="Layer_1" xmlns="http://www.w3.org/2000/svg" xmlns:xlink="http://www.w3.org/1999/xlink" x="0px" y="0px"
	 viewBox="0 0 1045 365" style="enable-background:new 0 0 1045 365;" xml:space="preserve">
<style type="text/css">
	.st0{fill:#FFFFFF;}
	.st1{font-family:'PloniMLv2AAA-Medium';}
	.st2{font-size:46.7989px;}
</style>
<text transform="matrix(1 0 0 1 287.0514 347.8853)" class="st0 st1 st2">Open-Source Note App</text>
<path class="st0" d="M352.25,42.67l-23.02,0.06l6.63,45.45c0.85-0.8,1.72-1.58,2.61-2.34l13.79-39.82L352.25,42.67z M266.15,119.43
	l-17.31,53.78L206.53,43.05l-46.33,0.12l-41.63,130.38L75.92,43.39l-61.44,0.16v3.35l81.53,231.46l39.95-0.1l47.65-140.81
	l48.38,140.56l39.96-0.11l12.19-35.19L266.15,119.43z"/>
<path class="st0" d="M459.18,262.33l-33.4,4.87l-15.8-108.29c-3.48-23.82-20.1-37.15-41.13-34.08
	c-21.02,3.07-33.14,20.58-29.67,44.41l15.8,108.29l-56.07,8.18l-8.79-60.26L272,101.27l-11.44-78.4l56.08-8.18l4.09,28.06
	l9.56,65.51c0.3-0.49,0.6-0.97,0.92-1.45c11.35-17.63,30.02-28.83,53.22-32.22c44.29-6.47,72.81,20.08,81.31,74.04
	c-17.99,12.35-29.51,31.38-31.13,54.28C432.94,226.6,442.26,247.54,459.18,262.33z"/>
<path class="st0" d="M628.04,155.65l-2.89-10.36l-19.1,5.32l-16.4-58.84l6.04-1.68c-13.9-8.65-31.79-13.3-52.72-14.78
	c-34.27-2.43-67.29,7.66-84.62,16.73l15.62,40.17c14.71-7.13,36.07-13.07,55.86-11.67c24.37,1.72,39.97,12.06,40.34,36.94
	c-11.46-8.62-26.33-14.29-43.64-15.52c-19.87-1.41-37.66,2.65-51.68,10.86c-2.73,1.59-5.3,3.34-7.73,5.24
	c-13.96,10.91-22.79,26.67-24.12,45.45c-1.66,23.46,8.93,43.91,27.69,57.14c3.59,2.54,7.49,4.81,11.66,6.79c0,0,0,0,0.01,0
	c10.1,4.79,21.79,7.86,34.67,8.77c17.31,1.23,33.18-2.27,45.74-9.19l-0.62,8.83l57.58,4.08l7.93-111.99
	C627.96,163.68,628.09,159.58,628.04,155.65z M568.82,211.71c-1.13,15.89-15.7,26.22-36.55,24.75
	c-20.13-1.43-33.82-13.76-32.69-29.65c1.12-15.9,16.41-26.18,36.54-24.76C556.97,183.53,569.94,195.81,568.82,211.71z"/>
<path class="st0" d="M766.93,253.3l-37.19,10.37c-40.94,11.41-64.33-5.23-74.41-41.4l-18.91-67.88v-0.02L631,134.93l-4.81,1.34
	l-14.3,3.99l-11.88-42.65l4.29-1.2l9.5-2.64l5.31-1.48l-10.36-37.18l51.73-25.46l13.22,47.43l35.82-9.99l11.89,42.65l-35.83,9.98
	l19.11,68.57c6.18,22.19,13.45,27.14,31.87,22.01l17.06-4.76L766.93,253.3z"/>
<path class="st0" d="M948.44,110.71c-19.62,0-36.97,5.85-50.61,16.16v0.94h-1.23c-18.82,14.84-30.24,38.36-30.24,66.72
	c0,5.45,0.42,10.73,1.24,15.8c2.63,1.34,6.24,1.49,11.03,1.49H903v53.97c12.75,8.07,28.22,12.57,45.44,12.57
	c47.74,0,82.08-34.63,82.08-83.83C1030.52,145.34,996.18,110.71,948.44,110.71z M948.44,236.45c-20.96,0-36.97-17.76-36.97-41.92
	c0-24.16,16.01-41.91,36.97-41.91s36.97,17.75,36.97,41.91C985.41,218.69,969.4,236.45,948.44,236.45z"/>
<path class="st0" d="M895.88,218.95v48.27h-37.59c-41.38,0-58.96-21.72-58.96-58.27v-88.27h-19.31v-43.1h19.31V39.99l55.17-10.34
	v47.93h36.2v43.1h-36.2v69.31c0,18.06,3.58,25.82,14.71,28.15c2.68,0.56,5.8,0.81,9.42,0.81H895.88z"/>
</svg>
