<?xml version="1.0" encoding="utf-8"?>
<!-- Generator: Adobe Illustrator 26.1.0, SVG Export Plug-In . SVG Version: 6.00 Build 0)  -->
<svg version="1.1" id="Layer_1" xmlns="http://www.w3.org/2000/svg" xmlns:xlink="http://www.w3.org/1999/xlink" x="0px" y="0px"
	 viewBox="0 0 1045 365" style="enable-background:new 0 0 1045 365;" xml:space="preserve">
<style type="text/css">
	.st0{fill:#FFFFFF;}
</style>
<g>
	<path class="st0" d="M288.87,333.74c0-8.41,6.22-14.59,14.51-14.59c8.29,0,14.47,6.18,14.47,14.59c0,8.41-6.18,14.59-14.47,14.59
		C295.09,348.33,288.87,342.15,288.87,333.74z M313.16,333.74c0-5.9-4.16-10.23-9.78-10.23c-5.66,0-9.82,4.33-9.82,10.23
		s4.16,10.23,9.82,10.23C309,343.96,313.16,339.64,313.16,333.74z"/>
	<path class="st0" d="M345.09,336.77c0,6.51-4.33,11.44-10.27,11.44c-3.48,0-6.27-1.54-7.92-4.2v11.96h-4.41v-30.32h4.41v3.88
		c1.66-2.67,4.45-4.2,7.92-4.2C340.76,325.33,345.09,330.26,345.09,336.77z M340.64,336.77c0-4.33-2.79-7.56-6.75-7.56
		c-4,0-6.99,3.23-6.99,7.56c0,4.32,2.99,7.56,6.99,7.56C337.85,344.33,340.64,341.09,340.64,336.77z"/>
	<path class="st0" d="M370.35,338.51h-17.62c0.65,3.52,3.31,5.86,6.83,5.86c2.26,0,4.24-1.05,5.58-2.91l3.35,2.34
		c-2.06,2.83-5.01,4.49-8.93,4.49c-6.43,0-11.08-5.01-11.08-11.52c0-6.59,4.65-11.52,11.08-11.52
		C367.03,325.25,371.15,331.84,370.35,338.51z M352.68,335.27h13.54c-0.4-3.15-2.63-6.06-6.67-6.06
		C355.96,329.21,353.25,331.64,352.68,335.27z"/>
	<path class="st0" d="M394.64,335.23v12.65h-4.45l0.04-12.37c0-3.92-2.26-6.51-5.74-6.51s-5.82,2.59-5.82,6.51v12.37h-4.41v-22.23
		h4.41v3.52c1.58-2.47,4.2-3.88,7.48-3.88C391.48,325.29,394.68,328.89,394.64,335.23z"/>
	<path class="st0" d="M399.68,337.7v-3.88h15.16v3.88H399.68z"/>
	<path class="st0" d="M436.38,327.47c-1.17-2.67-3.52-4.29-6.95-4.29c-2.95,0-5.34,0.97-5.34,3.64c0,2.71,2.75,3.6,7.52,4.89
		c5.29,1.46,9.22,3.19,9.22,8.49c0,5.86-5.62,8.12-10.63,8.12c-5.38,0-9.78-2.42-11.28-7.28l3.8-2.1c1.41,3.76,4.32,5.33,7.72,5.33
		c3.15,0,5.78-1.09,5.78-3.88c0-2.83-2.38-3.92-6.83-5.21c-4.28-1.21-9.9-2.79-9.9-8.41c0-5.5,4.93-7.64,10.11-7.64
		c5.74,0,9.22,2.75,10.75,6.47L436.38,327.47z"/>
	<path class="st0" d="M444.38,336.77c0-6.79,4.69-11.6,11.24-11.6c6.55,0,11.28,4.81,11.28,11.6c0,6.79-4.73,11.6-11.28,11.6
		C449.07,348.37,444.38,343.56,444.38,336.77z M462.61,336.77c0-4.41-2.99-7.64-6.99-7.64s-6.95,3.23-6.95,7.64
		c0,4.41,2.95,7.64,6.95,7.64S462.61,341.18,462.61,336.77z"/>
	<path class="st0" d="M486.37,325.65h4.41l-0.04,13.26c-0.04,5.54-3.92,9.34-9.82,9.34s-9.86-3.8-9.86-9.34v-13.26h4.41v13.1
		c0,3.31,2.18,5.58,5.46,5.58c3.27,0,5.46-2.26,5.46-5.58V325.65z"/>
	<path class="st0" d="M500.56,331.03c1.05-3.4,4.49-5.78,8.65-5.54v4.2c-4.16-0.28-8.45,2.34-8.45,8.29v9.9h-4.45v-22.23h3.76
		l0.36,5.34L500.56,331.03z"/>
	<path class="st0" d="M521.69,325.25c4.33,0,8,2.47,9.58,5.94l-3.52,1.78c-1.17-2.18-3.36-3.76-6.06-3.76
		c-4.08,0-6.99,3.11-6.99,7.56s2.91,7.56,6.99,7.56c2.75,0,4.93-1.58,6.06-3.8l3.52,1.82c-1.58,3.48-5.25,5.94-9.58,5.94
		c-6.59,0-11.2-4.73-11.2-11.52C510.5,329.98,515.1,325.25,521.69,325.25z"/>
	<path class="st0" d="M555.72,338.51H538.1c0.65,3.52,3.31,5.86,6.83,5.86c2.26,0,4.24-1.05,5.58-2.91l3.35,2.34
		c-2.06,2.83-5.01,4.49-8.93,4.49c-6.43,0-11.08-5.01-11.08-11.52c0-6.59,4.65-11.52,11.08-11.52
		C552.41,325.25,556.53,331.84,555.72,338.51z M538.06,335.27h13.54c-0.4-3.15-2.63-6.06-6.67-6.06
		C541.33,329.21,538.62,331.64,538.06,335.27z"/>
	<path class="st0" d="M597.39,347.89h-3.4l-16.41-20.01v20.01h-4.61v-28.29h3.4l16.41,20.01v-20.01h4.61V347.89z"/>
	<path class="st0" d="M601.75,336.77c0-6.79,4.69-11.6,11.24-11.6c6.55,0,11.28,4.81,11.28,11.6c0,6.79-4.73,11.6-11.28,11.6
		C606.44,348.37,601.75,343.56,601.75,336.77z M619.98,336.77c0-4.41-2.99-7.64-6.99-7.64c-4,0-6.95,3.23-6.95,7.64
		c0,4.41,2.95,7.64,6.95,7.64C616.99,344.41,619.98,341.18,619.98,336.77z"/>
	<path class="st0" d="M639.7,344v3.88h-3.56c-4.69,0-6.63-2.42-6.63-6.71v-12.04h-2.83v-3.48h2.83v-4.77l4.45-0.85v5.62h5.13v3.48
		h-5.13v10.59c0,3.07,0.93,4.28,3.76,4.28H639.7z"/>
	<path class="st0" d="M662.94,338.51h-17.62c0.65,3.52,3.31,5.86,6.83,5.86c2.26,0,4.24-1.05,5.58-2.91l3.35,2.34
		c-2.06,2.83-5.01,4.49-8.93,4.49c-6.43,0-11.08-5.01-11.08-11.52c0-6.59,4.65-11.52,11.08-11.52
		C659.62,325.25,663.75,331.84,662.94,338.51z M645.27,335.27h13.54c-0.4-3.15-2.63-6.06-6.67-6.06
		C648.55,329.21,645.84,331.64,645.27,335.27z"/>
	<path class="st0" d="M692.12,319.59l12.13,28.05v0.24h-4.81l-2.43-5.86h-13.18l-2.42,5.86h-4.85v-0.24l12.13-28.05H692.12z
		 M685.37,338.27h10.11l-5.05-12.29L685.37,338.27z"/>
	<path class="st0" d="M729.46,336.77c0,6.51-4.32,11.44-10.27,11.44c-3.48,0-6.26-1.54-7.92-4.2v11.96h-4.41v-30.32h4.41v3.88
		c1.66-2.67,4.45-4.2,7.92-4.2C725.13,325.33,729.46,330.26,729.46,336.77z M725.01,336.77c0-4.33-2.79-7.56-6.75-7.56
		c-4,0-6.99,3.23-6.99,7.56c0,4.32,2.99,7.56,6.99,7.56C722.22,344.33,725.01,341.09,725.01,336.77z"/>
	<path class="st0" d="M756.45,336.77c0,6.51-4.32,11.44-10.27,11.44c-3.48,0-6.26-1.54-7.92-4.2v11.96h-4.41v-30.32h4.41v3.88
		c1.66-2.67,4.45-4.2,7.92-4.2C752.13,325.33,756.45,330.26,756.45,336.77z M752.01,336.77c0-4.33-2.79-7.56-6.75-7.56
		c-4,0-6.99,3.23-6.99,7.56c0,4.32,2.99,7.56,6.99,7.56C749.22,344.33,752.01,341.09,752.01,336.77z"/>
</g>
<path class="st0" d="M352.25,42.67l-23.02,0.06l6.63,45.45c0.85-0.8,1.72-1.58,2.61-2.34l13.79-39.82L352.25,42.67z M266.15,119.43
	l-17.31,53.78L206.53,43.05l-46.33,0.12l-41.63,130.38L75.92,43.39l-61.44,0.16v3.35l81.53,231.46l39.95-0.1l47.65-140.81
	l48.38,140.56l39.96-0.11l12.19-35.19L266.15,119.43z"/>
<path class="st0" d="M459.18,262.33l-33.4,4.87l-15.8-108.29c-3.48-23.82-20.1-37.15-41.13-34.08
	c-21.02,3.07-33.14,20.58-29.67,44.41l15.8,108.29l-56.07,8.18l-8.79-60.26L272,101.27l-11.44-78.4l56.08-8.18l4.09,28.06
	l9.56,65.51c0.3-0.49,0.6-0.97,0.92-1.45c11.35-17.63,30.02-28.83,53.22-32.22c44.29-6.47,72.81,20.08,81.31,74.04
	c-17.99,12.35-29.51,31.38-31.13,54.28C432.94,226.6,442.26,247.54,459.18,262.33z"/>
<path class="st0" d="M628.04,155.65l-2.89-10.36l-19.1,5.32l-16.4-58.84l6.04-1.68c-13.9-8.65-31.79-13.3-52.72-14.78
	c-34.27-2.43-67.29,7.66-84.62,16.73l15.62,40.17c14.71-7.13,36.07-13.07,55.86-11.67c24.37,1.72,39.97,12.06,40.34,36.94
	c-11.46-8.62-26.33-14.29-43.64-15.52c-19.87-1.41-37.66,2.65-51.68,10.86c-2.73,1.59-5.3,3.34-7.73,5.24
	c-13.96,10.91-22.79,26.67-24.12,45.45c-1.66,23.46,8.93,43.91,27.69,57.14c3.59,2.54,7.49,4.81,11.66,6.79c0,0,0,0,0.01,0
	c10.1,4.79,21.79,7.86,34.67,8.77c17.31,1.23,33.18-2.27,45.74-9.19l-0.62,8.83l57.58,4.08l7.93-111.99
	C627.96,163.68,628.09,159.58,628.04,155.65z M568.82,211.71c-1.13,15.89-15.7,26.22-36.55,24.75
	c-20.13-1.43-33.82-13.76-32.69-29.65c1.12-15.9,16.41-26.18,36.54-24.76C556.97,183.53,569.94,195.81,568.82,211.71z"/>
<path class="st0" d="M766.93,253.3l-37.19,10.37c-40.94,11.41-64.33-5.23-74.41-41.4l-18.91-67.88v-0.02L631,134.93l-4.81,1.34
	l-14.3,3.99l-11.88-42.65l4.29-1.2l9.5-2.64l5.31-1.48l-10.36-37.18l51.73-25.46l13.22,47.43l35.82-9.99l11.89,42.65l-35.83,9.98
	l19.11,68.57c6.18,22.19,13.45,27.14,31.87,22.01l17.06-4.76L766.93,253.3z"/>
<path class="st0" d="M948.44,110.71c-19.62,0-36.97,5.85-50.61,16.16v0.94h-1.23c-18.82,14.84-30.24,38.36-30.24,66.72
	c0,5.45,0.42,10.73,1.24,15.8c2.63,1.34,6.24,1.49,11.03,1.49H903v53.97c12.75,8.07,28.22,12.57,45.44,12.57
	c47.74,0,82.08-34.63,82.08-83.83C1030.52,145.34,996.18,110.71,948.44,110.71z M948.44,236.45c-20.96,0-36.97-17.76-36.97-41.92
	c0-24.16,16.01-41.91,36.97-41.91s36.97,17.75,36.97,41.91C985.41,218.69,969.4,236.45,948.44,236.45z"/>
<path class="st0" d="M895.88,218.95v48.27h-37.59c-41.38,0-58.96-21.72-58.96-58.27v-88.27h-19.31v-43.1h19.31V39.99l55.17-10.34
	v47.93h36.2v43.1h-36.2v69.31c0,18.06,3.58,25.82,14.71,28.15c2.68,0.56,5.8,0.81,9.42,0.81H895.88z"/>
</svg>
